<svg width="147" height="39" viewBox="0 0 147 39" fill="none" xmlns="http://www.w3.org/2000/svg">
<path id="Vector" d="M23.2849 18.2087C23.2448 13.9422 26.8146 11.8487 26.9751 11.7692C24.9428 8.8542 21.8141 8.4567 20.691 8.41695C18.0838 8.12545 15.5301 9.9672 14.193 9.9672C12.8159 9.9672 10.7568 8.4302 8.53735 8.4832C5.68946 8.52295 3.01539 10.1659 1.54464 12.7232C-1.49043 17.8907 0.769164 25.5492 3.6839 29.7494C5.1279 31.8032 6.82594 34.1219 9.03205 34.0292C11.2114 33.9364 12.027 32.6512 14.6476 32.6512C17.2415 32.6512 17.9902 34.0159 20.2632 33.9762C22.603 33.9232 24.0737 31.896 25.4776 29.8157C27.1489 27.4572 27.8308 25.1384 27.8575 25.0192C27.8041 24.9927 23.3116 23.2967 23.2849 18.1822V18.2087ZM19.0063 5.6477C20.1696 4.1902 20.9718 2.24245 20.7445 0.241699C19.0598 0.307949 16.9473 1.39445 15.7306 2.8122C14.661 4.0577 13.6849 6.1247 13.939 8.0327C15.8376 8.1652 17.7896 7.0787 19.0197 5.6477H19.0063ZM54.7186 33.7377H51.6835L50.0256 28.5702H44.2362L42.6585 33.7377H39.7171L45.4262 16.1152H48.956L54.7052 33.7377H54.7186ZM49.5042 26.3839L48.0334 21.7862C47.8596 21.3092 47.5655 20.1962 47.1242 18.4737H47.0708C46.8969 19.2157 46.6162 20.3287 46.2284 21.7862L44.7309 26.3839H49.5175H49.5042ZM69.4528 27.2452C69.4528 29.3917 68.8645 31.0877 67.6879 32.3597C66.6182 33.4727 65.3213 34.0292 63.757 34.0292C62.0589 34.0292 60.8556 33.4329 60.1069 32.2272H60.0534V38.9184H57.2055V25.2312C57.2055 23.8664 57.1654 22.4752 57.0985 21.0442H59.6122L59.7726 23.0714H59.8261C60.762 21.5477 62.2328 20.7924 64.1447 20.7924C65.6556 20.7924 66.9124 21.4019 67.9285 22.5812C68.9313 23.7737 69.4394 25.3372 69.4394 27.2717L69.4528 27.2452ZM66.5514 27.3379C66.5514 26.0924 66.2572 25.0854 65.6957 24.2904C65.0806 23.4292 64.2517 23.0184 63.2088 23.0184C62.5135 23.0184 61.8718 23.257 61.2968 23.7207C60.7219 24.1845 60.3609 24.7807 60.1737 25.5359C60.0935 25.8937 60.04 26.1719 60.04 26.3972V28.5172C60.04 29.4447 60.3342 30.2397 60.9091 30.8624C61.4706 31.4984 62.2194 31.8164 63.1286 31.8164C64.1982 31.8164 65.0405 31.4189 65.6422 30.5974C66.2439 29.7759 66.538 28.6894 66.538 27.3512L66.5514 27.3379ZM84.2136 27.2452C84.2136 29.3917 83.6254 31.0877 82.4354 32.3597C81.3925 33.4727 80.0688 34.0292 78.5045 34.0292C76.8198 34.0292 75.6031 33.4329 74.8678 32.2272H74.8277V38.9184H71.9798V25.2312C71.9798 23.8664 71.9397 22.4752 71.8728 21.0442H74.3731L74.5335 23.0714H74.587C75.5229 21.5477 76.9669 20.7924 78.9056 20.7924C80.4165 20.7924 81.6866 21.4019 82.6894 22.5812C83.7056 23.7737 84.2136 25.3372 84.2136 27.2717V27.2452ZM81.3123 27.3379C81.3123 26.0924 81.0449 25.0854 80.4566 24.2904C79.8282 23.4292 79.0126 23.0184 77.9697 23.0184C77.2611 23.0184 76.6326 23.257 76.0577 23.7207C75.4962 24.1845 75.1218 24.7807 74.948 25.5359C74.8544 25.8937 74.8143 26.1719 74.8143 26.3972V28.5172C74.8143 29.4447 75.0817 30.2397 75.67 30.8624C76.2583 31.4984 77.007 31.8164 77.9162 31.8164C78.9858 31.8164 79.8282 31.4189 80.4298 30.5974C81.0181 29.7759 81.3257 28.6894 81.3257 27.3512L81.3123 27.3379ZM100.713 28.7954C100.713 30.2927 100.178 31.5117 99.135 32.4657C97.9718 33.486 96.3539 34.0027 94.2815 34.0027C92.3696 34.0027 90.832 33.645 89.6688 32.903L90.3373 30.5444C91.5807 31.2864 92.9579 31.6574 94.4553 31.6574C95.525 31.6574 96.3673 31.4189 96.969 30.9419C97.5573 30.4649 97.8648 29.8157 97.8648 29.0207C97.8648 28.3052 97.6241 27.6957 97.1294 27.2054C96.6481 26.7152 95.8191 26.278 94.6826 25.8407C91.5673 24.688 90.003 23.0052 90.003 20.8057C90.003 19.3482 90.5378 18.1557 91.6476 17.2282C92.7172 16.3007 94.1879 15.8369 96.0063 15.8369C97.6375 15.8369 98.9745 16.102 100.058 16.6717L99.3222 18.9904C98.306 18.4605 97.1829 18.1954 95.9127 18.1954C94.9099 18.1954 94.1211 18.4207 93.5595 18.9109C93.0648 19.3614 92.8375 19.8915 92.8375 20.5275C92.8375 21.2164 93.1049 21.7994 93.6398 22.2499C94.1211 22.6739 94.9768 23.1244 96.2336 23.6147C97.7712 24.2242 98.9077 24.9397 99.6163 25.7612C100.338 26.5562 100.686 27.5897 100.686 28.8087L100.713 28.7954ZM110.152 23.1377H106.997V29.3254C106.997 30.8889 107.532 31.6707 108.655 31.6707C109.163 31.6707 109.591 31.6309 109.925 31.5382L110.005 33.6847C109.43 33.8967 108.695 34.0027 107.772 34.0027C106.649 34.0027 105.767 33.6582 105.125 32.9824C104.496 32.32 104.189 31.1539 104.189 29.5374V23.1509H102.317V21.0309H104.189V18.7122L106.997 17.8775V21.0574H110.125V23.1775L110.152 23.1377ZM124.325 27.2849C124.325 29.2327 123.75 30.8359 122.627 32.0947C121.423 33.3799 119.872 34.0292 117.92 34.0292C116.049 34.0292 114.551 33.4064 113.441 32.1742C112.318 30.9419 111.757 29.3917 111.757 27.497C111.757 25.5095 112.318 23.893 113.495 22.6342C114.631 21.3887 116.169 20.7527 118.134 20.7527C120.006 20.7527 121.53 21.3887 122.68 22.6077C123.75 23.8267 124.311 25.3902 124.311 27.2849H124.325ZM121.357 27.3777C121.357 26.1852 121.089 25.1914 120.594 24.3567C120.006 23.3364 119.15 22.8329 118.054 22.8329C116.904 22.8329 116.022 23.3364 115.433 24.3567C114.899 25.1914 114.671 26.2117 114.671 27.4307C114.671 28.5967 114.912 29.6037 115.433 30.4384C116.049 31.4719 116.904 31.9754 118.014 31.9754C119.11 31.9754 119.966 31.4454 120.581 30.4252C121.089 29.5639 121.357 28.5437 121.357 27.3777ZM133.577 23.5087C133.31 23.4557 132.989 23.4292 132.681 23.4292C131.678 23.4292 130.903 23.8267 130.355 24.5554C129.9 25.2179 129.66 26.0659 129.66 27.0729V33.7377H126.812L126.838 25.0324C126.838 23.5749 126.798 22.2499 126.731 21.0309H129.192L129.299 23.4822H129.379C129.686 22.6342 130.154 21.9717 130.809 21.4549C131.438 21.0044 132.12 20.7924 132.868 20.7924C133.136 20.7924 133.35 20.7924 133.564 20.8322V23.5219L133.577 23.5087ZM146.332 26.7814C146.332 27.2849 146.292 27.7089 146.225 28.0667H137.668C137.708 29.3254 138.123 30.2794 138.912 30.9419C139.647 31.5249 140.583 31.8164 141.72 31.8164C142.99 31.8164 144.126 31.6177 145.196 31.2202L145.624 33.2077C144.42 33.7112 142.976 33.9762 141.345 33.9762C139.34 33.9762 137.775 33.3932 136.639 32.2537C135.502 31.0612 134.941 29.5242 134.941 27.5764C134.941 25.6552 135.476 24.0519 136.519 22.7799C137.642 21.4284 139.139 20.7395 141.024 20.7395C142.869 20.7395 144.273 21.4019 145.223 22.7667C145.985 23.8532 146.372 25.1782 146.372 26.7682L146.332 26.7814ZM143.605 26.0527C143.632 25.2179 143.444 24.4892 143.07 23.8797C142.562 23.0847 141.8 22.6872 140.797 22.6872C139.861 22.6872 139.099 23.0847 138.524 23.8532C138.043 24.4627 137.762 25.1782 137.668 26.0527H143.605ZM48.5816 5.2502C48.5816 6.8402 48.1137 7.99295 47.1644 8.78795C46.2819 9.5167 45.0251 9.87445 43.4206 9.87445C42.6184 9.87445 41.9499 9.82145 41.3883 9.74195V1.2752C42.1237 1.1427 42.9259 1.10295 43.795 1.10295C45.3326 1.10295 46.4691 1.4342 47.2713 2.08345C48.127 2.82545 48.5682 3.88545 48.5682 5.26345L48.5816 5.2502ZM47.1109 5.3032C47.1109 4.2962 46.8435 3.51445 46.3086 2.9712C45.7471 2.4412 44.9716 2.1762 43.9287 2.1762C43.4875 2.1762 43.1265 2.1762 42.7922 2.2557V8.7482C42.9661 8.7482 43.2869 8.7747 43.7282 8.7747C44.7978 8.7747 45.6401 8.46995 46.2284 7.88695C46.79 7.27745 47.0841 6.42945 47.0841 5.28995L47.1109 5.3032ZM56.4033 6.6282C56.4033 7.5822 56.1359 8.3772 55.6011 8.9867C54.9994 9.6227 54.2373 9.9407 53.2746 9.9407C52.3387 9.9407 51.6167 9.63595 51.0685 9.0132C50.5337 8.41695 50.2663 7.64845 50.2663 6.72095C50.2663 5.76695 50.5337 4.99845 51.1086 4.36245C51.6702 3.75295 52.4456 3.43495 53.3816 3.43495C54.3175 3.43495 55.0662 3.7397 55.6278 4.36245C56.1626 4.94545 56.43 5.68745 56.43 6.64145L56.4033 6.6282ZM54.9593 6.66795C54.9593 6.0982 54.8256 5.60795 54.5849 5.18395C54.2908 4.6937 53.8763 4.44195 53.3281 4.44195C52.7665 4.44195 52.3387 4.68045 52.0445 5.1707C51.7771 5.5682 51.6702 6.0982 51.6702 6.6812C51.6702 7.2377 51.8039 7.7412 52.0445 8.1387C52.3521 8.6422 52.7665 8.89395 53.3147 8.89395C53.8495 8.89395 54.2506 8.62895 54.5582 8.1387C54.8256 7.7147 54.9593 7.2112 54.9593 6.64145V6.66795ZM66.9258 3.5542L64.9469 9.7817H63.65L62.8478 7.09195C62.6205 6.3897 62.4467 5.7272 62.313 5.05145C62.1793 5.74045 62.0055 6.4162 61.7782 7.0787L60.9225 9.76845H59.6122L57.7671 3.54095H59.2111L59.9331 6.4957C60.1069 7.19795 60.2539 7.86045 60.3743 8.4832C60.508 7.9797 60.6684 7.3172 60.9091 6.4957L61.8049 3.5277H62.9548L63.8105 6.4427C64.011 7.1582 64.1848 7.8472 64.3185 8.49645H64.3453C64.4389 7.86045 64.5859 7.17145 64.7731 6.4427L65.5486 3.5277H66.9124L66.9258 3.5542ZM74.1859 9.79495H72.782V6.21745C72.782 5.1177 72.3541 4.57445 71.5118 4.57445C71.1107 4.57445 70.7631 4.70695 70.4957 5.0117C70.2282 5.31645 70.0945 5.6742 70.0945 6.0717V9.7817H68.704V5.3297C68.704 4.7732 68.704 4.17695 68.6639 3.54095H69.9073L69.9608 4.5082H70.0009C70.1614 4.2167 70.4021 3.9782 70.7229 3.7662C71.1241 3.5012 71.5252 3.3952 72.0065 3.3952C72.5948 3.3952 73.0761 3.5807 73.4772 3.96495C73.9586 4.4287 74.1992 5.1177 74.1992 6.03195V9.7817L74.1859 9.79495ZM78.0633 9.79495H76.646V0.692199H78.0499L78.0633 9.79495ZM86.2994 6.6282C86.2994 7.5822 86.032 8.3772 85.4705 8.9867C84.8822 9.6227 84.1334 9.9407 83.1574 9.9407C82.2482 9.9407 81.5128 9.63595 80.9646 9.0132C80.4298 8.41695 80.1357 7.64845 80.1357 6.72095C80.1357 5.76695 80.4031 4.99845 80.9914 4.36245C81.5529 3.75295 82.3284 3.43495 83.2644 3.43495C84.2003 3.43495 84.9356 3.7397 85.5106 4.36245C86.0454 4.94545 86.3128 5.68745 86.3128 6.64145L86.2994 6.6282ZM84.8287 6.66795C84.8287 6.0982 84.7217 5.60795 84.4677 5.18395C84.1602 4.6937 83.7457 4.44195 83.1975 4.44195C82.6359 4.44195 82.2081 4.68045 81.9139 5.1707C81.6465 5.5682 81.5128 6.0982 81.5128 6.6812C81.5128 7.2377 81.6465 7.7412 81.9139 8.1387C82.2081 8.6422 82.6226 8.89395 83.1708 8.89395C83.7056 8.89395 84.1067 8.62895 84.4276 8.1387C84.695 7.7147 84.8287 7.2112 84.8287 6.64145V6.66795ZM93.0782 9.79495H91.8214L91.6877 9.07945H91.6609C91.2331 9.63595 90.618 9.92745 89.8292 9.92745C89.2409 9.92745 88.7596 9.74195 88.3986 9.3577C88.0643 9.0397 87.9039 8.60245 87.9039 8.09895C87.9039 7.3437 88.2248 6.77395 88.8665 6.34995C89.5083 5.95245 90.4175 5.7537 91.5941 5.76695V5.63445C91.5941 4.81295 91.1529 4.4022 90.2838 4.4022C89.6554 4.4022 89.1072 4.5612 88.6392 4.86595L88.3718 3.93845C88.9468 3.59395 89.6688 3.40845 90.5111 3.40845C92.169 3.40845 92.998 4.2697 92.998 5.9922V8.2977C92.998 8.9337 93.0247 9.4372 93.0916 9.79495H93.0782ZM91.6075 7.64845V6.72095C90.0832 6.6812 89.3078 7.09195 89.3078 7.96645C89.3078 8.28445 89.4013 8.5362 89.5752 8.6952C89.7623 8.8277 90.003 8.92045 90.2704 8.92045C90.5779 8.92045 90.8721 8.8277 91.1261 8.62895C91.3935 8.44345 91.554 8.1917 91.6208 7.9002V7.6352L91.6075 7.64845ZM101.034 9.79495H99.7901L99.7366 8.8012H99.7099C99.3088 9.55645 98.6403 9.9407 97.6776 9.9407C96.9155 9.9407 96.2871 9.6492 95.8058 9.05295C95.2709 8.4567 95.0303 7.70145 95.0303 6.74745C95.0303 5.74045 95.2977 4.91895 95.8592 4.2962C96.3941 3.7132 97.0225 3.4217 97.7979 3.4217C98.6403 3.4217 99.2419 3.6867 99.5762 4.2697H99.6029V0.692199H101.007V8.1122C101.007 8.7217 101.007 9.2782 101.047 9.79495H101.034ZM99.5896 7.17145V6.11145C99.5896 5.9392 99.5896 5.79345 99.5495 5.68745C99.4692 5.3562 99.2821 5.0647 99.0414 4.83945C98.774 4.60095 98.4531 4.49495 98.1055 4.49495C97.5706 4.49495 97.1695 4.6937 96.862 5.10445C96.5679 5.50195 96.4074 6.03195 96.4074 6.69445C96.4074 7.30395 96.5411 7.80745 96.8353 8.1917C97.1428 8.5892 97.5573 8.81445 98.0653 8.81445C98.2796 8.82075 98.4923 8.77589 98.6855 8.68365C98.8786 8.59141 99.0465 8.45449 99.1751 8.28445C99.4425 7.9797 99.5762 7.59545 99.5762 7.14495L99.5896 7.17145ZM113.027 6.6282C113.027 7.5822 112.759 8.3772 112.198 8.9867C111.61 9.6227 110.861 9.9407 109.885 9.9407C108.949 9.9407 108.227 9.63595 107.679 9.0132C107.144 8.41695 106.85 7.64845 106.85 6.72095C106.85 5.76695 107.117 4.99845 107.705 4.36245C108.267 3.75295 109.042 3.43495 109.978 3.43495C110.914 3.43495 111.663 3.7397 112.225 4.36245C112.759 4.94545 113.027 5.68745 113.027 6.64145V6.6282ZM111.556 6.66795C111.556 6.0982 111.449 5.60795 111.195 5.18395C110.901 4.6937 110.486 4.44195 109.938 4.44195C109.377 4.44195 108.949 4.68045 108.655 5.1707C108.387 5.5682 108.28 6.0982 108.28 6.6812C108.28 7.2377 108.414 7.7412 108.655 8.1387C108.962 8.6422 109.377 8.89395 109.925 8.89395C110.46 8.89395 110.888 8.62895 111.182 8.1387C111.449 7.7147 111.583 7.2112 111.583 6.64145L111.556 6.66795ZM120.554 9.79495H119.164V6.21745C119.164 5.1177 118.736 4.57445 117.894 4.57445C117.452 4.57445 117.118 4.70695 116.864 5.0117C116.597 5.31645 116.463 5.6742 116.463 6.0717V9.7817H115.099V5.3297C115.099 4.7732 115.072 4.17695 115.032 3.54095H116.262L116.329 4.5082H116.369C116.53 4.2167 116.771 3.9782 117.091 3.7662C117.466 3.5012 117.894 3.3952 118.348 3.3952C118.937 3.3952 119.418 3.5807 119.819 3.96495C120.3 4.4287 120.541 5.1177 120.541 6.03195V9.7817L120.554 9.79495ZM129.994 4.5877H128.443V7.6352C128.443 8.4037 128.71 8.78795 129.245 8.78795C129.512 8.78795 129.726 8.76145 129.887 8.7217L129.927 9.7817C129.633 9.87445 129.258 9.9142 128.817 9.9142C128.282 9.9142 127.841 9.7552 127.52 9.42395C127.213 9.0927 127.052 8.5362 127.052 7.7412V4.5877H126.116L126.143 3.5542H127.052V2.40145L128.429 2.00395V3.5277H129.98V4.5612L129.994 4.5877ZM137.401 9.79495H135.997V6.24395C135.997 5.13095 135.596 4.5612 134.74 4.5612C134.072 4.5612 133.631 4.89245 133.403 5.5417C133.336 5.6742 133.323 5.84645 133.323 6.0452V9.79495H131.919V0.692199H133.31V4.4552H133.336C133.778 3.7662 134.406 3.4217 135.208 3.4217C135.81 3.4217 136.278 3.6072 136.679 3.99145C137.147 4.4552 137.374 5.15745 137.374 6.08495V9.79495H137.401ZM145.049 6.37645C145.049 6.64145 145.049 6.8402 145.009 7.01245H140.81C140.81 7.62195 141.024 8.09895 141.412 8.41695C141.773 8.68195 142.214 8.84095 142.789 8.84095C143.418 8.84095 143.993 8.7482 144.501 8.54945L144.715 9.5167C144.126 9.7817 143.418 9.9142 142.602 9.9142C141.626 9.9142 140.864 9.6227 140.302 9.05295C139.741 8.4832 139.473 7.72795 139.473 6.74745C139.473 5.81995 139.741 5.02495 140.249 4.4022C140.784 3.7397 141.519 3.3952 142.455 3.3952C143.351 3.3952 144.059 3.75295 144.514 4.41545C144.875 4.94545 145.049 5.60795 145.049 6.37645ZM143.712 6.0187C143.739 5.6212 143.645 5.2502 143.444 4.9587C143.204 4.5612 142.843 4.3757 142.335 4.3757C141.88 4.3757 141.506 4.5612 141.225 4.94545C140.984 5.23695 140.851 5.60795 140.824 6.00545H143.725L143.712 6.0187Z" fill="white"/>
</svg>
